<svg width="121" height="30" viewBox="0 0 121 30" fill="none" xmlns="http://www.w3.org/2000/svg">
<g clip-path="url(#clip0_1435_246)">
<path d="M16.0241 20.6466V14.3268L20.7359 18.7685C25.4221 12.6136 20.1485 4.03496 12.6276 5.11364C10.6612 5.38014 8.80968 6.31922 7.44341 7.75323C1.92722 13.5147 6.53681 23.4258 15.5006 22.3471C15.7943 22.3091 16.1007 22.2964 16.3944 22.3598H16.4072C16.8413 22.436 17.2244 22.6644 17.5309 22.9817L20.1996 25.672C4.92793 32.5756 -6.09167 14.7202 3.72764 4.31415C15.922 -7.75438 35.0499 7.88014 24.3495 22.0933L26.0222 23.7304V29.9994L16.0241 20.6466Z" fill="white"/>
<path d="M30.1604 26.2816H33.7485V17.8679C33.7485 17.4872 33.774 17.1065 33.8506 16.7385C34.8594 11.5608 42.3292 11.4085 43.6316 16.4847C43.7593 16.9542 43.7976 17.4491 43.7976 17.9441V26.2689H47.2835V17.5126C47.2835 16.2562 47.0282 15.0126 46.4919 13.8704C43.555 7.77908 34.438 7.55065 31.1691 13.5278C30.4796 14.7842 30.1604 16.2055 30.1604 17.6268V26.2816Z" fill="white"/>
<path d="M40.4523 17.7285H37.0046V26.2818H40.4523V17.7285Z" fill="white"/>
<path d="M66.0155 26.3327L66.0538 22.7667L57.588 22.6779C57.205 22.6779 56.8219 22.6398 56.4516 22.5763C51.2546 21.523 51.1908 14.0992 56.3111 12.8428C56.7836 12.7286 57.2816 12.6906 57.7796 12.6906L66.156 12.7794L66.1943 9.31492L57.371 9.22609C56.1068 9.2134 54.8427 9.44182 53.7063 9.97482C47.5517 12.8301 47.2197 21.8784 53.1955 25.2032C54.4469 25.9012 55.877 26.2312 57.3199 26.2565L66.0155 26.3327Z" fill="white"/>
<path d="M57.5199 16.0202L57.4827 19.4463L66.0881 19.5387L66.1253 16.1126L57.5199 16.0202Z" fill="white"/>
<path d="M102.113 26.3327L102.152 22.7667L93.686 22.6779C93.3029 22.6779 92.9198 22.6398 92.5495 22.5763C87.3526 21.523 87.2887 14.0992 92.4091 12.8428C92.8815 12.7286 93.3795 12.6906 93.8775 12.6906L102.254 12.7794L102.292 9.31492L93.4689 9.22609C92.2048 9.2134 90.9406 9.44182 89.8042 9.97482C83.6496 12.8301 83.3176 21.8784 89.2934 25.2032C90.5448 25.9012 91.9749 26.2312 93.4178 26.2565L102.113 26.3327Z" fill="white"/>
<path d="M93.6229 16.0144L93.5857 19.4404L102.191 19.5328L102.228 16.1068L93.6229 16.0144Z" fill="white"/>
<path d="M67.8032 9.47949H84.9902V12.7536H78.1078V26.2815H74.5708V12.8044H67.8032V9.47949Z" fill="white"/>
<path d="M104.297 9.47949H115.853C116.249 9.47949 116.644 9.50487 117.028 9.59371C121.931 10.6597 122.224 17.6521 117.704 18.9719C119.262 20.5455 120.105 22.9186 120.079 26.2815H116.581C116.593 22.4617 115.227 20.3297 112.635 19.6952C112.137 19.5683 111.626 19.5303 111.115 19.5303H104.297V16.2435H115.419C117.525 16.2435 117.525 12.7282 115.419 12.7282H104.297V9.47949Z" fill="white"/>
</g>
<defs>
<clipPath id="clip0_1435_246">
<rect width="120.909" height="30" fill="white"/>
</clipPath>
</defs>
</svg>
