<svg width="121" height="30" viewBox="0 0 121 30" fill="none" xmlns="http://www.w3.org/2000/svg">
<g clip-path="url(#clip0_162_70)">
<path d="M16.0239 20.6466V14.3268L20.7356 18.7685C25.4218 12.6136 20.1483 4.03496 12.6274 5.11364C10.6609 5.38014 8.80944 6.31922 7.44316 7.75323C1.92698 13.5147 6.53657 23.4258 15.5004 22.3471C15.794 22.3091 16.1005 22.2964 16.3942 22.3598H16.407C16.8411 22.436 17.2242 22.6644 17.5306 22.9817L20.1993 25.672C4.92768 32.5756 -6.09191 14.7202 3.7274 4.31415C15.9217 -7.75438 35.0496 7.88014 24.3492 22.0933L26.022 23.7304V29.9994L16.0239 20.6466Z" fill="white"/>
<path d="M30.1602 26.2816H33.7482V17.8679C33.7482 17.4872 33.7738 17.1065 33.8504 16.7385C34.8591 11.5608 42.3289 11.4085 43.6314 16.4847C43.7591 16.9542 43.7974 17.4491 43.7974 17.9441V26.2689H47.2833V17.5126C47.2833 16.2562 47.0279 15.0126 46.4916 13.8704C43.5548 7.77908 34.4377 7.55065 31.1689 13.5278C30.4794 14.7842 30.1602 16.2055 30.1602 17.6268V26.2816Z" fill="white"/>
<path d="M40.452 17.7285H37.0044V26.2818H40.452V17.7285Z" fill="white"/>
<path d="M66.0155 26.3327L66.0538 22.7667L57.588 22.6779C57.205 22.6779 56.8219 22.6398 56.4516 22.5763C51.2546 21.523 51.1908 14.0992 56.3111 12.8428C56.7836 12.7286 57.2816 12.6906 57.7796 12.6906L66.156 12.7794L66.1943 9.31492L57.371 9.22609C56.1068 9.2134 54.8427 9.44182 53.7063 9.97482C47.5517 12.8301 47.2197 21.8784 53.1955 25.2032C54.4469 25.9012 55.877 26.2312 57.3199 26.2565L66.0155 26.3327Z" fill="white"/>
<path d="M57.5201 16.0202L57.4829 19.4463L66.0883 19.5387L66.1256 16.1126L57.5201 16.0202Z" fill="white"/>
<path d="M102.113 26.3327L102.152 22.7667L93.6857 22.6779C93.3027 22.6779 92.9196 22.6398 92.5493 22.5763C87.3523 21.523 87.2885 14.0992 92.4088 12.8428C92.8813 12.7286 93.3793 12.6906 93.8772 12.6906L102.254 12.7794L102.292 9.31492L93.4686 9.22609C92.2045 9.2134 90.9404 9.44182 89.804 9.97482C83.6493 12.8301 83.3173 21.8784 89.2932 25.2032C90.5446 25.9012 91.9747 26.2312 93.4176 26.2565L102.113 26.3327Z" fill="white"/>
<path d="M93.6227 16.0144L93.5854 19.4404L102.191 19.5328L102.228 16.1068L93.6227 16.0144Z" fill="white"/>
<path d="M67.8027 9.47949H84.9898V12.7536H78.1073V26.2815H74.5703V12.8044H67.8027V9.47949Z" fill="white"/>
<path d="M104.296 9.47949H115.852C116.248 9.47949 116.644 9.50487 117.027 9.59371C121.93 10.6597 122.224 17.6521 117.704 18.9719C119.262 20.5455 120.104 22.9186 120.079 26.2815H116.58C116.593 22.4617 115.227 20.3297 112.635 19.6952C112.137 19.5683 111.626 19.5303 111.115 19.5303H104.296V16.2435H115.418C117.525 16.2435 117.525 12.7282 115.418 12.7282H104.296V9.47949Z" fill="white"/>
</g>
<defs>
<clipPath id="clip0_162_70">
<rect width="120.909" height="30" fill="white"/>
</clipPath>
</defs>
</svg>
