<svg width="15" height="15" viewBox="0 0 15 15" fill="none" xmlns="http://www.w3.org/2000/svg">
<g clip-path="url(#clip0_1435_390)">
<path fill-rule="evenodd" clip-rule="evenodd" d="M9.70698 5.76174C9.75063 5.80528 9.78527 5.85701 9.8089 5.91395C9.83253 5.9709 9.84469 6.03195 9.84469 6.09361C9.84469 6.15527 9.83253 6.21632 9.8089 6.27327C9.78527 6.33022 9.75063 6.38194 9.70698 6.42549L6.89448 9.23799C6.85094 9.28164 6.79921 9.31627 6.74226 9.3399C6.68531 9.36353 6.62426 9.3757 6.5626 9.3757C6.50095 9.3757 6.4399 9.36353 6.38295 9.3399C6.326 9.31627 6.27427 9.28164 6.23073 9.23799L4.82448 7.83174C4.7809 7.78815 4.74632 7.73641 4.72274 7.67947C4.69915 7.62253 4.68701 7.5615 4.68701 7.49986C4.68701 7.43823 4.69915 7.37719 4.72274 7.32025C4.74632 7.26331 4.7809 7.21157 4.82448 7.16799C4.86806 7.1244 4.9198 7.08983 4.97674 7.06625C5.03369 7.04266 5.09472 7.03052 5.15635 7.03052C5.21799 7.03052 5.27902 7.04266 5.33596 7.06625C5.39291 7.08983 5.44465 7.1244 5.48823 7.16799L6.5626 8.2433L9.04323 5.76174C9.08677 5.71808 9.1385 5.68345 9.19545 5.65982C9.2524 5.63619 9.31345 5.62402 9.3751 5.62402C9.43676 5.62402 9.49781 5.63619 9.55476 5.65982C9.61171 5.68345 9.66344 5.71808 9.70698 5.76174Z" fill="#65676B"/>
<path d="M9.63092 2.35616L8.76748 1.47116L9.43779 0.816785L10.0209 1.41397L10.8553 1.40366C11.2165 1.39939 11.5748 1.46737 11.9094 1.60362C12.2439 1.73986 12.5478 1.94162 12.8032 2.19703C13.0586 2.45243 13.2603 2.75633 13.3966 3.09084C13.5328 3.42536 13.6008 3.78374 13.5965 4.14491L13.5872 4.97928L14.1834 5.56241C14.4417 5.81476 14.6469 6.11618 14.787 6.44895C14.9271 6.78173 14.9992 7.13916 14.9992 7.50022C14.9992 7.86129 14.9271 8.21871 14.787 8.55149C14.6469 8.88427 14.4417 9.18569 14.1834 9.43804L13.5862 10.0212L13.5965 10.8555C13.6008 11.2167 13.5328 11.5751 13.3966 11.9096C13.2603 12.2441 13.0586 12.548 12.8032 12.8034C12.5478 13.0588 12.2439 13.2606 11.9094 13.3968C11.5748 13.5331 11.2165 13.6011 10.8553 13.5968L10.0209 13.5874L9.43779 14.1837C9.18544 14.4419 8.88403 14.6471 8.55125 14.7872C8.21847 14.9273 7.86104 14.9995 7.49998 14.9995C7.13891 14.9995 6.78149 14.9273 6.44871 14.7872C6.11593 14.6471 5.81451 14.4419 5.56217 14.1837L4.97904 13.5865L4.14467 13.5968C3.78349 13.6011 3.42511 13.5331 3.0906 13.3968C2.75608 13.2606 2.45219 13.0588 2.19678 12.8034C1.94138 12.548 1.73962 12.2441 1.60337 11.9096C1.46713 11.5751 1.39914 11.2167 1.40342 10.8555L1.41279 10.0212L0.816541 9.43804C0.558297 9.18569 0.353097 8.88427 0.213 8.55149C0.0729018 8.21871 0.000732422 7.86129 0.000732422 7.50022C0.000732422 7.13916 0.0729018 6.78173 0.213 6.44895C0.353097 6.11618 0.558297 5.81476 0.816541 5.56241L1.41373 4.97928L1.40342 4.14491C1.39914 3.78374 1.46713 3.42536 1.60337 3.09084C1.73962 2.75633 1.94138 2.45243 2.19678 2.19703C2.45219 1.94162 2.75608 1.73986 3.0906 1.60362C3.42511 1.46737 3.78349 1.39939 4.14467 1.40366L4.97904 1.41303L5.56217 0.816785C5.81451 0.558541 6.11593 0.353341 6.44871 0.213244C6.78149 0.0731459 7.13891 0.000976562 7.49998 0.000976562C7.86104 0.000976562 8.21847 0.0731459 8.55125 0.213244C8.88403 0.353341 9.18544 0.558541 9.43779 0.816785L8.76748 1.47116C8.60244 1.30221 8.40529 1.16796 8.18762 1.0763C7.96996 0.98464 7.73616 0.937422 7.49998 0.937422C7.2638 0.937422 7.03 0.98464 6.81233 1.0763C6.59466 1.16796 6.39751 1.30221 6.23248 1.47116L5.36998 2.35616L4.13248 2.34116C3.89639 2.33852 3.66216 2.38309 3.44355 2.47225C3.22493 2.56141 3.02634 2.69336 2.85944 2.86035C2.69253 3.02734 2.56069 3.226 2.47164 3.44466C2.3826 3.66332 2.33815 3.89758 2.34092 4.13366L2.35592 5.36929L1.47092 6.23272C1.30197 6.39776 1.16771 6.59491 1.07606 6.81258C0.984396 7.03024 0.937178 7.26404 0.937178 7.50022C0.937178 7.7364 0.984396 7.9702 1.07606 8.18787C1.16771 8.40554 1.30197 8.60269 1.47092 8.76772L2.35592 9.63022L2.34092 10.8677C2.33828 11.1038 2.38285 11.338 2.472 11.5567C2.56116 11.7753 2.69311 11.9739 2.8601 12.1408C3.02709 12.3077 3.22576 12.4395 3.44442 12.5286C3.66308 12.6176 3.89733 12.662 4.13342 12.6593L5.36904 12.6443L6.23248 13.5293C6.39751 13.6982 6.59466 13.8325 6.81233 13.9241C7.03 14.0158 7.2638 14.063 7.49998 14.063C7.73616 14.063 7.96996 14.0158 8.18762 13.9241C8.40529 13.8325 8.60244 13.6982 8.76748 13.5293L9.62998 12.6443L10.8675 12.6593C11.1036 12.6619 11.3378 12.6174 11.5564 12.5282C11.775 12.439 11.9736 12.3071 12.1405 12.1401C12.3074 11.9731 12.4393 11.7744 12.5283 11.5558C12.6174 11.3371 12.6618 11.1029 12.659 10.8668L12.644 9.63116L13.529 8.76772C13.698 8.60269 13.8322 8.40554 13.9239 8.18787C14.0156 7.9702 14.0628 7.7364 14.0628 7.50022C14.0628 7.26404 14.0156 7.03024 13.9239 6.81258C13.8322 6.59491 13.698 6.39776 13.529 6.23272L12.644 5.37022L12.659 4.13272C12.6617 3.89664 12.6171 3.66241 12.528 3.44379C12.4388 3.22518 12.3068 3.02658 12.1399 2.85968C11.9729 2.69278 11.7742 2.56093 11.5555 2.47189C11.3369 2.38284 11.1026 2.3384 10.8665 2.34116L9.63092 2.35616Z" fill="#65676B"/>
</g>
<defs>
<clipPath id="clip0_1435_390">
<rect width="15" height="15" fill="white"/>
</clipPath>
</defs>
</svg>
